<?xml version="1.0" standalone="no"?>
<!DOCTYPE svg PUBLIC "-//W3C//DTD SVG 20010904//EN"
 "http://www.w3.org/TR/2001/REC-SVG-20010904/DTD/svg10.dtd">
<svg version="1.0" xmlns="http://www.w3.org/2000/svg"
 width="640.000000pt" height="1280.000000pt" viewBox="0 0 640.000000 1280.000000"
 preserveAspectRatio="xMidYMid meet">
<metadata>
Created by potrace 1.15, written by Peter Selinger 2001-2017
</metadata>
<g transform="translate(0.000000,1280.000000) scale(0.100000,-0.100000)"
fill="#973268" stroke="none">
<path d="M2625 12499 c-93 -4 -235 -17 -315 -29 -242 -35 -728 -135 -716 -148
7 -6 -86 -108 -96 -105 -7 3 -9 -6 -88 -387 -105 -508 -152 -751 -206 -1065
-104 -609 -157 -1045 -189 -1551 -21 -331 -19 -530 5 -721 81 -635 295 -1182
624 -1588 106 -132 174 -217 224 -280 81 -102 218 -233 472 -449 276 -235 426
-382 523 -512 75 -101 150 -244 167 -320 14 -65 21 -2475 8 -3104 -12 -605
-21 -742 -56 -865 -108 -371 -303 -605 -658 -783 -110 -56 -258 -110 -376
-137 -42 -10 -76 -21 -75 -24 1 -3 -15 -22 -36 -41 -46 -43 -53 -87 -17 -124
12 -14 20 -29 16 -34 -6 -10 95 -16 594 -34 303 -10 1931 -18 2325 -10 88 2
187 1 220 -2 33 -3 49 -2 36 2 l-24 8 26 17 c19 12 28 29 32 62 8 50 1 64 -56
126 -34 36 -35 36 -294 88 -522 105 -673 158 -916 317 -177 116 -257 244 -288
456 -12 81 -27 1633 -24 2452 1 504 11 778 38 1116 26 321 32 351 121 610 5
13 4 13 -5 0 -6 -8 -18 -37 -27 -65 -9 -27 -23 -58 -31 -67 -8 -9 -12 -22 -7
-29 4 -7 3 -10 -3 -6 -5 3 -17 -11 -28 -31 -37 -74 -79 -141 -91 -146 -8 -3
-20 19 -33 62 -26 85 -40 104 -109 148 -70 45 -162 137 -277 279 -67 83 -204
232 -228 248 -22 16 -21 16 9 8 17 -5 60 -12 95 -16 54 -6 62 -5 48 7 -23 18
-52 102 -45 126 8 25 45 50 83 56 15 3 127 8 248 11 287 7 480 31 575 72 95
40 185 90 253 141 153 116 386 339 498 480 33 43 69 86 78 97 94 113 261 384
367 601 193 389 254 545 300 764 42 200 29 334 -41 426 -22 29 -24 35 -11 40
9 3 16 11 16 16 0 5 9 23 21 39 32 45 22 69 -41 101 -107 54 -315 82 -870 119
-171 11 -1688 17 -1733 7 -16 -4 -140 -10 -276 -14 l-248 -7 -58 27 c-31 14
-64 26 -72 26 -21 0 -74 40 -68 51 9 14 -84 11 -225 -6 -189 -23 -250 -35
-250 -50 0 -7 -18 -33 -40 -58 l-40 -45 -1 -249 c0 -136 -4 -239 -8 -229 -7
18 -8 18 -14 2 -4 -10 -7 -28 -7 -41 0 -14 -7 -25 -20 -28 -11 -3 -20 0 -20 5
0 6 -6 16 -14 22 -21 16 -87 201 -101 281 -15 85 -18 42 -6 -80 15 -142 22
-359 11 -305 -6 25 -12 59 -14 75 -2 17 -9 51 -15 78 -51 217 -65 615 -36
1022 11 148 13 171 20 227 4 29 8 76 10 103 11 176 82 709 135 1018 39 227 49
281 60 332 5 22 13 67 19 100 6 33 24 128 41 210 16 83 32 166 34 185 10 72
57 254 86 338 30 87 72 160 131 226 37 43 46 44 202 17 62 -11 137 -22 167
-25 l55 -5 -45 11 -45 12 35 6 c20 3 34 11 32 18 -1 7 5 12 13 12 8 0 12 6 9
14 -6 16 22 28 136 56 76 20 185 67 217 97 52 47 1139 56 1468 12 44 -6 94
-13 110 -14 81 -9 352 -46 365 -50 8 -2 31 -7 50 -10 19 -3 85 -31 147 -62
102 -51 116 -55 157 -50 25 4 45 3 43 -1 -1 -4 22 -35 51 -69 47 -53 58 -61
89 -61 60 0 108 -73 173 -262 18 -52 37 -98 44 -102 6 -4 7 -8 1 -8 -5 0 -5
-4 2 -8 6 -4 28 -92 49 -196 21 -104 40 -184 42 -178 7 23 -149 774 -178 855
-52 142 -142 234 -253 256 -149 30 -571 75 -841 91 -202 11 -1065 11 -1321 -1z
m644 -11174 c9 -11 28 -33 43 -50 31 -34 40 -29 58 37 14 51 31 41 71 -40 18
-37 35 -69 39 -72 4 -3 17 -35 29 -71 27 -83 82 -174 142 -236 25 -27 48 -55
51 -64 3 -8 39 -55 79 -105 89 -108 148 -195 189 -277 17 -34 40 -77 51 -95
19 -29 20 -34 6 -55 -19 -30 -128 -63 -257 -80 -84 -11 -91 -13 -55 -19 64
-10 -407 -1 -545 11 -69 6 -182 15 -252 20 -134 11 -204 24 -252 49 -30 15
-30 15 -9 31 11 9 29 21 39 27 17 11 11 15 -47 42 -95 43 -120 70 -121 129 -1
50 2 70 15 88 36 50 97 146 97 153 0 5 7 15 15 22 21 17 19 35 -2 19 -10 -8
15 22 55 66 40 45 95 113 121 153 26 39 52 68 56 64 5 -4 5 1 1 12 -4 13 -2
17 8 13 9 -4 17 2 21 14 4 10 10 19 14 19 4 0 43 46 87 101 63 81 89 106 127
124 47 22 50 22 80 7 18 -10 38 -26 46 -37z"/>
<path d="M4264 11357 c-34 -39 -54 -188 -54 -395 0 -147 13 -433 24 -547 8
-75 16 -163 21 -230 3 -33 7 -80 10 -105 2 -25 7 -74 10 -110 11 -139 24 -231
45 -331 23 -108 52 -171 104 -225 97 -101 219 -66 260 75 18 60 21 184 7 258
-5 26 -15 82 -21 123 -7 41 -19 110 -27 153 -8 42 -16 90 -19 105 -2 15 -9 50
-14 77 -6 28 -19 102 -31 165 -60 330 -130 656 -170 795 -47 162 -105 238
-145 192z"/>
<path d="M5226 11240 c7 -54 32 -161 33 -140 1 16 -27 158 -34 175 -2 6 -2
-10 1 -35z"/>
<path d="M5260 11073 c0 -22 34 -192 38 -189 5 5 -28 196 -34 196 -2 0 -4 -3
-4 -7z"/>
<path d="M5302 10850 c0 -14 2 -19 5 -12 2 6 2 18 0 25 -3 6 -5 1 -5 -13z"/>
<path d="M5312 10795 c0 -16 2 -22 5 -12 2 9 2 23 0 30 -3 6 -5 -1 -5 -18z"/>
<path d="M5327 10715 c3 -27 7 -52 9 -54 7 -8 2 54 -6 79 -6 17 -7 9 -3 -25z"/>
<path d="M5342 10630 c0 -14 2 -19 5 -12 2 6 2 18 0 25 -3 6 -5 1 -5 -13z"/>
<path d="M5352 10580 c-1 -14 5 -54 13 -90 7 -36 13 -54 13 -40 1 14 -5 54
-13 90 -7 36 -13 54 -13 40z"/>
<path d="M5382 10405 c-1 -11 3 -38 7 -60 7 -34 9 -35 9 -10 0 35 -15 101 -16
70z"/>
<path d="M5407 10245 c3 -33 7 -62 9 -64 7 -8 2 63 -7 94 -5 20 -6 9 -2 -30z"/>
<path d="M5427 10115 c3 -33 7 -62 9 -64 7 -8 2 63 -7 94 -5 20 -6 9 -2 -30z"/>
<path d="M5447 9980 c3 -36 7 -67 9 -69 7 -8 2 73 -6 104 -5 19 -6 6 -3 -35z"/>
<path d="M5462 9870 c0 -19 2 -27 5 -17 2 9 2 25 0 35 -3 9 -5 1 -5 -18z"/>
<path d="M5472 9805 c-1 -16 5 -73 12 -125 8 -52 14 -77 14 -55 0 22 -6 78
-13 125 -7 47 -13 72 -13 55z"/>
<path d="M5507 9495 c3 -49 9 -112 14 -140 5 -34 6 -21 2 40 -3 49 -9 112 -14
140 -5 34 -6 21 -2 -40z"/>
<path d="M5533 9235 c0 -38 2 -53 4 -32 2 20 2 52 0 70 -2 17 -4 1 -4 -38z"/>
<path d="M5547 9035 c3 -71 9 -159 13 -195 10 -81 2 111 -10 240 -7 67 -7 58
-3 -45z"/>
<path d="M5502 8808 c-6 -56 -9 -105 -6 -109 5 -9 -11 -212 -32 -384 -43 -355
-154 -686 -337 -1012 -54 -95 -166 -272 -206 -323 -151 -197 -228 -293 -311
-384 -68 -76 -266 -275 -340 -341 -74 -67 -186 -164 -223 -195 -92 -75 -254
-260 -240 -273 3 -4 38 24 78 61 40 37 108 88 153 115 160 94 539 452 732 691
57 72 98 126 90 122 -8 -5 -4 2 10 15 14 13 21 22 15 19 -6 -3 1 6 15 20 14
14 21 23 15 20 -6 -3 1 6 15 20 14 14 21 23 15 20 -6 -3 1 6 15 20 14 14 19
21 11 15 -12 -8 -12 -7 -3 12 7 12 17 25 24 29 7 5 8 3 3 -6 -5 -9 -4 -11 4
-6 6 4 9 11 6 16 -3 5 14 44 39 87 25 43 87 168 139 278 52 110 115 241 141
292 25 50 56 118 67 150 30 88 97 440 114 598 36 335 37 354 26 442 -6 47 -12
88 -14 90 -2 1 -9 -43 -15 -99z"/>
<path d="M1146 8745 c4 -27 8 -52 10 -54 9 -10 3 76 -7 89 -7 11 -8 1 -3 -35z"/>
<path d="M5574 8630 c0 -80 2 -112 3 -72 2 39 2 105 0 145 -1 39 -3 7 -3 -73z"/>
<path d="M5563 8430 c0 -30 2 -43 4 -27 2 15 2 39 0 55 -2 15 -4 2 -4 -28z"/>
<path d="M5542 8280 c-7 -52 -16 -108 -19 -125 -3 -16 -3 -28 0 -25 9 9 39
196 35 222 -2 12 -9 -20 -16 -72z"/>
<path d="M5511 8105 c-1 -11 -4 -31 -6 -45 l-6 -25 11 25 c6 13 9 33 7 45 -4
19 -4 19 -6 0z"/>
<path d="M5472 7948 c-13 -44 -21 -82 -19 -85 2 -2 14 33 27 77 13 44 21 82
19 85 -3 2 -15 -33 -27 -77z"/>
<path d="M5436 7835 c-3 -9 -6 -22 -5 -28 0 -7 5 -1 10 12 5 13 8 26 5 28 -2
2 -6 -3 -10 -12z"/>
<path d="M5411 7759 c-6 -18 -9 -34 -7 -36 2 -2 9 10 15 28 6 18 9 34 7 36 -2
2 -9 -10 -15 -28z"/>
<path d="M5376 7665 c-9 -26 -7 -32 5 -12 6 10 9 21 6 23 -2 3 -7 -2 -11 -11z"/>
<path d="M5352 7605 c-17 -37 -14 -45 4 -12 9 16 14 31 11 33 -2 2 -9 -7 -15
-21z"/>
<path d="M5312 7515 c-30 -62 -27 -71 4 -12 14 27 24 51 22 53 -3 2 -14 -17
-26 -41z"/>
<path d="M5275 7439 c-4 -6 -5 -12 -2 -15 2 -3 7 2 10 11 7 17 1 20 -8 4z"/>
<path d="M5225 7340 c-19 -38 -33 -70 -30 -70 2 0 21 32 40 70 19 39 33 70 30
70 -2 0 -21 -31 -40 -70z"/>
<path d="M5170 7240 c-6 -11 -8 -20 -6 -20 3 0 10 9 16 20 6 11 8 20 6 20 -3
0 -10 -9 -16 -20z"/>
<path d="M5139 7188 c-7 -13 -19 -34 -27 -48 -14 -24 -13 -24 3 -5 20 24 48
75 41 75 -3 0 -11 -10 -17 -22z"/>
<path d="M5076 7085 c-9 -14 -23 -37 -32 -52 l-16 -28 20 24 c24 29 55 81 49
81 -3 0 -12 -11 -21 -25z"/>
<path d="M3636 5485 c-9 -26 -7 -32 5 -12 6 10 9 21 6 23 -2 3 -7 -2 -11 -11z"/>
</g>
</svg>
